<?xml version="1.0" encoding="utf-8"?>
<!-- Generator: Adobe Illustrator 16.0.3, SVG Export Plug-In . SVG Version: 6.00 Build 0)  -->
<!DOCTYPE svg PUBLIC "-//W3C//DTD SVG 1.1//EN" "http://www.w3.org/Graphics/SVG/1.1/DTD/svg11.dtd">
<svg version="1.1" id="Ebene_1" xmlns="http://www.w3.org/2000/svg" xmlns:xlink="http://www.w3.org/1999/xlink" x="0px" y="0px"
	 width="410.799px" height="110px" viewBox="0 0 410.799 110" enable-background="new 0 0 410.799 110" xml:space="preserve">
<rect fill="#FFFFFF" width="410.801" height="110"/>
<g>
	<defs>
		<rect id="SVGID_1_" x="10.445" y="16.78" width="389.914" height="92.795"/>
	</defs>
	<clipPath id="SVGID_2_">
		<use xlink:href="#SVGID_1_"  overflow="visible"/>
	</clipPath>
	<path clip-path="url(#SVGID_2_)" fill="#8EBAE5" d="M323.82,86.192h4.444v-9.323h2.376c1.791,0,2.563,1.051,2.625,2.779
		l0.123,4.229c0.031,0.862,0.124,1.696,0.557,2.314h4.814v-0.185c-0.833-0.434-0.957-1.637-0.986-3.951
		c-0.063-4.662-0.525-6.329-3.551-6.73v-0.062c2.5-0.524,3.675-2.5,3.675-5.434c0-3.767-2.224-5.681-5.866-5.681h-8.211V86.192z
		 M328.265,67.424h2.1c2.006,0,3.088,1.019,3.088,3.057c0,2.376-1.205,3.302-3.335,3.302h-1.853V67.424z"/>
	<path clip-path="url(#SVGID_2_)" fill="#8EBAE5" d="M258.283,64.151v15.373c0,5.896,3.426,7.1,7.038,7.1
		c3.61,0,7.039-1.48,7.039-7.1V64.151h-4.445v15.373c0,2.192-0.525,3.828-2.594,3.828s-2.593-1.636-2.593-3.828V64.151H258.283z"/>
</g>
<polygon fill="#8EBAE5" points="273.448,64.151 273.448,86.192 277.523,86.192 277.523,70.759 277.584,70.759 283.018,86.192 
	288.08,86.192 288.08,64.151 284.005,64.151 284.005,79.246 283.943,79.246 278.572,64.151 "/>
<rect x="289.223" y="64.151" fill="#8EBAE5" width="4.445" height="22.041"/>
<polygon fill="#8EBAE5" points="293.973,64.151 299.035,86.192 304.746,86.192 309.809,64.151 305.209,64.151 301.938,80.451 
	301.845,80.451 298.728,64.151 "/>
<polygon fill="#8EBAE5" points="310.205,64.151 310.205,86.192 322.831,86.192 322.831,82.551 314.649,82.551 314.649,76.622 
	322.06,76.622 322.06,72.98 314.649,72.98 314.649,67.794 322.521,67.794 322.521,64.151 "/>
<g>
	<defs>
		<rect id="SVGID_3_" x="10.445" y="16.78" width="389.914" height="92.795"/>
	</defs>
	<clipPath id="SVGID_4_">
		<use xlink:href="#SVGID_3_"  overflow="visible"/>
	</clipPath>
	<path clip-path="url(#SVGID_4_)" fill="#8EBAE5" d="M338.266,79.309v0.895c0,4.076,1.975,6.423,7.008,6.423
		c4.815,0,7.655-2.101,7.655-6.763c0-2.685-0.865-4.382-4.199-5.834l-3.426-1.48c-1.884-0.804-2.284-1.637-2.284-2.994
		c0-1.296,0.524-2.563,2.531-2.563c1.696,0,2.407,1.204,2.407,3.273h4.261v-0.618c0-4.229-2.872-5.927-6.823-5.927
		c-4.198,0-6.821,2.191-6.821,6.481c0,3.675,1.821,5.312,5.772,6.668c2.933,1.02,3.952,1.761,3.952,3.768
		c0,1.852-1.299,2.716-2.655,2.716c-2.347,0-2.934-1.327-2.934-3.396v-0.648H338.266z"/>
</g>
<rect x="353.509" y="64.151" fill="#8EBAE5" width="4.445" height="22.041"/>
<polygon fill="#8EBAE5" points="381.043,64.151 377.956,72.672 377.895,72.672 374.993,64.151 358.537,64.151 358.537,67.794 
	363.353,67.794 363.353,86.192 367.798,86.192 367.798,67.794 371.547,67.794 375.702,77.519 375.702,86.192 380.148,86.192 
	380.148,77.519 385.859,64.151 "/>
<g>
	<defs>
		<rect id="SVGID_5_" x="10.445" y="16.78" width="389.914" height="92.795"/>
	</defs>
	<clipPath id="SVGID_6_">
		<use xlink:href="#SVGID_5_"  overflow="visible"/>
	</clipPath>
	<path clip-path="url(#SVGID_6_)" fill="#00549F" d="M219.233,62.146h-0.281h-7.084v-2.495v-19.48v-0.163h7.068h0.016h4.995
		c3.275-0.001,6.1,2.12,7.021,4.931c0.854,2.605,0.124,5.434-1.802,7.449c0.256,0.693,0.506,1.236,0.743,1.859
		c0.534,1.233,1.023,2.466,1.559,3.683l1.753,4.217h-0.045h-7.424c0,0.004-0.061-0.178-0.119-0.253
		c-0.297-0.651-0.565-1.351-0.861-2.004l-1.797-4.262c-0.713-1.722-1.426-3.35-2.138-5.072c0.889-0.024,1.554,0.143,2.412-0.252
		c0.604-0.297,1.518-1.035,1.542-2.449c-0.024-0.701-0.218-1.232-0.682-1.785c-0.466-0.513-1.139-0.894-2.016-0.906
		c0,0-2.862-0.001-2.861,0V62.146z"/>
	<path clip-path="url(#SVGID_6_)" fill="#00549F" d="M296.17,40.008v22.139h-5.751h-1.615V53.12h-0.688h-4.409h-0.061v9.027
		c-1.336,0-2.776-0.015-4.112,0h-3.253V45.13h-5.151v0.534v1.603v7.291v7.588h-0.06h-7.307V52.97v-0.356V45.13h-5.196v8.033v8.983
		h-7.587c-1.322-3.191-2.717-6.414-4.009-9.592c-0.149-0.668-0.297-1.337-0.49-1.99v11.582h-7.603
		c-1.508-3.504-2.955-6.938-4.457-10.494c-0.521-1.232-0.948-2.234-1.486-3.515l-0.074-0.168l-1.17-2.747l-1.676-3.923
		c-0.147-0.445-0.384-0.847-0.534-1.292h7.586c1.56,3.786,3.132,7.528,4.767,11.255l0.045,0.089c-0.06-0.431-0.194-0.98-0.269-1.395
		v-6.608c0.015-1.055,0-2.258,0-3.341h7.603c0.096,0.241,0.148,0.371,0.223,0.565c0.891,2.093,1.738,4.172,2.629,6.25l1.99,4.529
		c-0.045-0.476-0.149-0.935-0.209-1.395v-9.949h0.609h5.167h18.709h5.315v1.381v6.608h0.357h4.8v-7.989h3.842H296.17z"/>
</g>
<path fill="#8EBAE5" d="M317.534,53.805l2.141-9.954h0.062l2.141,9.954H317.534z M302.775,53.805l2.139-9.954h0.063l2.14,9.954
	H302.775z M322.466,40.005h-5.521l-4.62,17.452l-4.62-17.452h-5.52l-5.861,22.141h4.652L302,57.465h5.893l1.021,4.682h6.822
	l1.023-4.682h5.892l1.023,4.682h4.651L322.466,40.005z"/>
<g>
	<defs>
		<rect id="SVGID_7_" x="10.445" y="16.78" width="389.914" height="92.795"/>
	</defs>
	<clipPath id="SVGID_8_">
		<use xlink:href="#SVGID_7_"  overflow="visible"/>
	</clipPath>
	<path clip-path="url(#SVGID_8_)" fill="#8EBAE5" d="M341.625,47.561c0-3.21-0.462-7.872-6.822-7.872
		c-6.667,0-7.502,4.754-7.502,11.453c0,6.698,0.835,11.452,7.502,11.452c5.834,0,7.007-4.105,7.007-8.859h-4.444
		c0,4.754-1.174,5.587-2.778,5.587c-1.914,0-2.84-1.204-2.84-7.872c0-6.235,0.524-8.488,2.777-8.488
		c2.007,0,2.655,1.389,2.655,4.599H341.625z"/>
</g>
<polygon fill="#8EBAE5" points="342.688,62.146 347.152,62.146 347.152,52.318 352.362,52.318 352.362,62.146 356.827,62.146 
	356.827,40.008 352.362,40.008 352.362,48.474 347.152,48.474 347.152,40.008 342.688,40.008 "/>
<polygon fill="#8EBAE5" points="357.795,40.004 357.795,62.146 370.479,62.146 370.479,58.488 362.261,58.488 362.261,52.533 
	369.705,52.533 369.705,48.873 362.261,48.873 362.261,43.663 370.169,43.663 370.169,40.004 "/>
<polygon fill="#8EBAE5" points="371.143,40.008 371.143,62.146 375.235,62.146 375.235,46.643 375.297,46.643 380.755,62.146 
	385.84,62.146 385.84,40.008 381.747,40.008 381.747,55.17 381.685,55.17 376.29,40.008 "/>
<rect x="196.857" y="39.978" fill="#00549F" width="1.023" height="46.398"/>
<g>
	<defs>
		<rect id="SVGID_9_" x="10.445" y="16.78" width="389.914" height="92.795"/>
	</defs>
	<clipPath id="SVGID_10_">
		<use xlink:href="#SVGID_9_"  overflow="visible"/>
	</clipPath>
	<path clip-path="url(#SVGID_10_)" fill="#00549F" d="M180.076,83v-0.215c0-0.13,0.013-0.259,0.036-0.389
		c0.024-0.13,0.064-0.247,0.118-0.354c0.054-0.104,0.128-0.19,0.22-0.255s0.209-0.098,0.353-0.098c0.143,0,0.261,0.028,0.353,0.087
		c0.092,0.059,0.163,0.144,0.214,0.256c0.052,0.113,0.087,0.249,0.108,0.409c0.02,0.161,0.034,0.346,0.041,0.558H180.076z
		 M182.869,83.839v-0.316c0-0.423-0.027-0.808-0.082-1.151c-0.054-0.345-0.156-0.638-0.307-0.88c-0.15-0.242-0.356-0.43-0.618-0.563
		c-0.263-0.133-0.599-0.198-1.008-0.198c-0.478,0-0.859,0.079-1.146,0.234c-0.286,0.157-0.506,0.368-0.66,0.635
		c-0.153,0.266-0.256,0.569-0.307,0.91c-0.051,0.342-0.076,0.695-0.076,1.064c0,0.34,0.015,0.687,0.046,1.038
		c0.03,0.351,0.114,0.668,0.25,0.952c0.136,0.283,0.348,0.513,0.635,0.689c0.286,0.178,0.685,0.267,1.196,0.267
		c0.676,0,1.17-0.172,1.484-0.518c0.314-0.344,0.484-0.836,0.511-1.478h-1.268c-0.041,0.348-0.116,0.606-0.225,0.777
		c-0.11,0.171-0.284,0.256-0.522,0.256c-0.13,0-0.238-0.035-0.327-0.107s-0.161-0.167-0.215-0.286
		c-0.054-0.12-0.094-0.256-0.118-0.41c-0.023-0.152-0.036-0.312-0.036-0.475v-0.44H182.869z M178.045,82.857
		c0-0.655-0.166-1.174-0.496-1.556c-0.331-0.382-0.824-0.572-1.479-0.572c-0.327,0-0.627,0.044-0.9,0.133
		c-0.273,0.089-0.508,0.243-0.706,0.465c-0.197,0.222-0.351,0.52-0.46,0.89c-0.11,0.372-0.164,0.842-0.164,1.407
		c0,0.552,0.044,1.016,0.133,1.386c0.089,0.371,0.22,0.668,0.394,0.891c0.174,0.222,0.392,0.381,0.655,0.476
		c0.263,0.096,0.571,0.144,0.926,0.144c0.749,0,1.286-0.194,1.611-0.583c0.324-0.39,0.486-0.944,0.486-1.668h-1.351
		c0,0.45-0.054,0.777-0.163,0.981c-0.11,0.205-0.284,0.308-0.522,0.308c-0.157,0-0.284-0.035-0.384-0.107
		c-0.099-0.072-0.176-0.186-0.23-0.343c-0.054-0.156-0.092-0.356-0.112-0.599c-0.021-0.242-0.031-0.533-0.031-0.875
		c0-0.313,0.01-0.59,0.031-0.827c0.02-0.239,0.058-0.436,0.112-0.59c0.054-0.152,0.135-0.269,0.241-0.348
		c0.105-0.078,0.247-0.117,0.424-0.117c0.13,0,0.237,0.033,0.322,0.098c0.085,0.063,0.151,0.149,0.195,0.256
		c0.044,0.104,0.074,0.225,0.092,0.357c0.017,0.134,0.025,0.265,0.025,0.395H178.045z M168.853,86.376h1.412v-3.651
		c0-0.607,0.248-0.911,0.747-0.911c0.211,0,0.365,0.056,0.46,0.169c0.095,0.112,0.143,0.312,0.143,0.598v3.796h1.412v-4.082
		c0-0.552-0.121-0.951-0.363-1.196c-0.243-0.245-0.589-0.368-1.039-0.368c-0.307,0-0.58,0.063-0.818,0.188
		c-0.238,0.126-0.433,0.325-0.583,0.6h-0.021v-0.646h-1.35V86.376z M165.24,83v-0.215c0-0.13,0.012-0.259,0.036-0.389
		c0.023-0.13,0.063-0.247,0.117-0.354c0.054-0.104,0.128-0.19,0.22-0.255c0.092-0.064,0.21-0.098,0.353-0.098
		s0.261,0.028,0.353,0.087c0.092,0.059,0.164,0.144,0.215,0.256c0.051,0.113,0.087,0.249,0.107,0.409
		c0.021,0.161,0.034,0.346,0.041,0.558H165.24z M168.033,83.839v-0.316c0-0.423-0.028-0.808-0.082-1.151
		c-0.054-0.345-0.157-0.638-0.307-0.88c-0.151-0.242-0.356-0.43-0.619-0.563c-0.263-0.133-0.599-0.198-1.008-0.198
		c-0.478,0-0.859,0.079-1.146,0.234c-0.286,0.157-0.506,0.368-0.659,0.635c-0.154,0.266-0.256,0.569-0.307,0.91
		c-0.051,0.342-0.077,0.695-0.077,1.064c0,0.34,0.015,0.687,0.046,1.038c0.031,0.351,0.115,0.668,0.251,0.952
		c0.136,0.283,0.348,0.513,0.634,0.689c0.286,0.178,0.685,0.267,1.197,0.267c0.675,0,1.169-0.172,1.483-0.518
		c0.314-0.344,0.484-0.836,0.512-1.478h-1.269c-0.041,0.348-0.115,0.606-0.225,0.777c-0.109,0.171-0.283,0.256-0.522,0.256
		c-0.13,0-0.238-0.035-0.327-0.107c-0.089-0.072-0.161-0.167-0.215-0.286c-0.054-0.12-0.094-0.256-0.117-0.41
		c-0.024-0.152-0.036-0.312-0.036-0.475v-0.44H168.033z M161.548,86.376h1.412v-5.504h-1.412V86.376z M161.548,80.197h1.412V78.99
		h-1.412V80.197z M160.706,82.857c0-0.655-0.166-1.174-0.496-1.556c-0.331-0.382-0.824-0.572-1.479-0.572
		c-0.327,0-0.627,0.044-0.9,0.133s-0.508,0.243-0.706,0.465c-0.197,0.222-0.351,0.52-0.46,0.89c-0.11,0.372-0.164,0.842-0.164,1.407
		c0,0.552,0.044,1.016,0.133,1.386c0.089,0.371,0.22,0.668,0.394,0.891c0.174,0.222,0.392,0.381,0.655,0.476
		c0.263,0.096,0.571,0.144,0.926,0.144c0.75,0,1.287-0.194,1.611-0.583c0.324-0.39,0.486-0.944,0.486-1.668h-1.351
		c0,0.45-0.054,0.777-0.163,0.981c-0.11,0.205-0.284,0.308-0.522,0.308c-0.157,0-0.284-0.035-0.384-0.107
		c-0.099-0.072-0.176-0.186-0.23-0.343c-0.054-0.156-0.092-0.356-0.112-0.599c-0.021-0.242-0.031-0.533-0.031-0.875
		c0-0.313,0.01-0.59,0.031-0.827c0.02-0.239,0.058-0.436,0.112-0.59c0.054-0.152,0.135-0.269,0.241-0.348
		c0.105-0.078,0.247-0.117,0.424-0.117c0.13,0,0.238,0.033,0.322,0.098c0.085,0.063,0.151,0.149,0.195,0.256
		c0.044,0.104,0.074,0.225,0.092,0.357c0.017,0.134,0.025,0.265,0.025,0.395H160.706z M150.999,84.095v0.297
		c0,0.675,0.179,1.198,0.537,1.569c0.358,0.372,0.953,0.559,1.785,0.559c0.798,0,1.42-0.182,1.867-0.542
		c0.447-0.361,0.67-0.929,0.67-1.698c0-0.225-0.021-0.43-0.062-0.614c-0.041-0.184-0.114-0.353-0.22-0.507
		c-0.105-0.153-0.248-0.296-0.429-0.429c-0.181-0.133-0.407-0.262-0.68-0.385l-1.136-0.49c-0.314-0.13-0.518-0.271-0.614-0.424
		c-0.095-0.154-0.143-0.344-0.143-0.568c0-0.11,0.012-0.215,0.036-0.317c0.023-0.103,0.068-0.192,0.133-0.271
		c0.064-0.079,0.152-0.143,0.261-0.19c0.109-0.048,0.245-0.07,0.409-0.07c0.286,0,0.491,0.094,0.614,0.28
		c0.122,0.188,0.184,0.455,0.184,0.804h1.412v-0.204c0-0.349-0.057-0.647-0.169-0.896c-0.113-0.248-0.269-0.453-0.471-0.613
		c-0.2-0.16-0.44-0.276-0.716-0.348c-0.276-0.072-0.578-0.108-0.905-0.108c-0.702,0-1.256,0.178-1.658,0.532
		c-0.402,0.355-0.603,0.894-0.603,1.617c0,0.299,0.038,0.564,0.112,0.792c0.075,0.229,0.194,0.43,0.353,0.604
		c0.161,0.174,0.36,0.324,0.599,0.454c0.239,0.131,0.521,0.249,0.849,0.358c0.245,0.082,0.452,0.162,0.619,0.241
		s0.302,0.165,0.404,0.261c0.102,0.095,0.176,0.202,0.22,0.322c0.045,0.12,0.066,0.261,0.066,0.424c0,0.307-0.09,0.534-0.271,0.681
		c-0.18,0.146-0.383,0.221-0.608,0.221c-0.198,0-0.359-0.028-0.481-0.082c-0.123-0.055-0.222-0.13-0.297-0.226
		c-0.075-0.095-0.126-0.213-0.153-0.353c-0.028-0.141-0.041-0.295-0.041-0.466v-0.215H150.999z M146.436,84.708
		c0,0.157-0.027,0.289-0.082,0.395c-0.054,0.105-0.124,0.191-0.21,0.261c-0.085,0.069-0.179,0.118-0.281,0.147
		c-0.102,0.031-0.2,0.047-0.297,0.047c-0.19,0-0.327-0.074-0.409-0.226c-0.082-0.149-0.123-0.33-0.123-0.542
		c0-0.245,0.062-0.439,0.185-0.583c0.122-0.143,0.327-0.245,0.613-0.307c0.089-0.021,0.189-0.053,0.297-0.098
		c0.109-0.044,0.212-0.104,0.307-0.179V84.708z M145.126,82.561v-0.153c0-0.218,0.056-0.392,0.164-0.522
		c0.11-0.13,0.273-0.194,0.491-0.194c0.24,0,0.408,0.06,0.507,0.179c0.099,0.12,0.148,0.285,0.148,0.497
		c0,0.184-0.041,0.324-0.123,0.419c-0.082,0.095-0.228,0.171-0.44,0.225l-0.798,0.216c-0.245,0.067-0.455,0.146-0.629,0.234
		c-0.174,0.089-0.317,0.2-0.429,0.333c-0.113,0.133-0.196,0.293-0.251,0.481c-0.054,0.187-0.082,0.411-0.082,0.67
		c0,0.184,0.025,0.37,0.072,0.557c0.048,0.188,0.122,0.356,0.225,0.507c0.102,0.15,0.239,0.273,0.409,0.368
		c0.171,0.096,0.378,0.144,0.624,0.144c0.342,0,0.619-0.048,0.834-0.144c0.215-0.095,0.404-0.287,0.567-0.573h0.021
		c0.02,0.096,0.043,0.192,0.066,0.291c0.025,0.101,0.061,0.193,0.108,0.282h1.35c-0.067-0.164-0.113-0.316-0.138-0.461
		c-0.023-0.143-0.036-0.344-0.036-0.603v-2.896c0-0.246-0.025-0.473-0.076-0.681c-0.052-0.207-0.149-0.386-0.292-0.537
		c-0.143-0.15-0.346-0.266-0.609-0.347c-0.262-0.082-0.601-0.123-1.018-0.123c-0.266,0-0.516,0.027-0.751,0.087
		c-0.236,0.058-0.44,0.152-0.614,0.286c-0.174,0.133-0.312,0.309-0.415,0.526c-0.102,0.219-0.153,0.484-0.153,0.798v0.134H145.126z
		 M140.956,80.872h-0.716v0.962h0.716v3.151c0,0.279,0.016,0.511,0.051,0.695c0.034,0.184,0.097,0.333,0.189,0.444
		c0.092,0.113,0.223,0.192,0.394,0.241c0.17,0.048,0.395,0.071,0.675,0.071c0.164,0,0.318-0.007,0.466-0.021
		c0.146-0.014,0.297-0.027,0.455-0.041v-0.981c-0.048,0.007-0.099,0.012-0.154,0.015s-0.109,0.005-0.163,0.005
		c-0.205,0-0.34-0.046-0.404-0.138c-0.066-0.092-0.098-0.247-0.098-0.465v-2.978h0.819v-0.962h-0.819v-1.575h-1.411V80.872z
		 M138.242,84.708c0,0.157-0.028,0.289-0.082,0.395c-0.055,0.105-0.125,0.191-0.21,0.261c-0.086,0.069-0.179,0.118-0.281,0.147
		c-0.103,0.031-0.202,0.047-0.297,0.047c-0.191,0-0.327-0.074-0.409-0.226c-0.082-0.149-0.123-0.33-0.123-0.542
		c0-0.245,0.062-0.439,0.184-0.583c0.123-0.143,0.328-0.245,0.614-0.307c0.088-0.021,0.187-0.053,0.297-0.098
		c0.108-0.044,0.211-0.104,0.307-0.179V84.708z M136.932,82.561v-0.153c0-0.218,0.054-0.392,0.164-0.522
		c0.108-0.13,0.272-0.194,0.491-0.194c0.238,0,0.407,0.06,0.506,0.179c0.099,0.12,0.149,0.285,0.149,0.497
		c0,0.184-0.041,0.324-0.123,0.419s-0.229,0.171-0.44,0.225l-0.798,0.216c-0.245,0.067-0.455,0.146-0.629,0.234
		c-0.174,0.089-0.317,0.2-0.43,0.333c-0.112,0.133-0.196,0.293-0.25,0.481c-0.056,0.187-0.082,0.411-0.082,0.67
		c0,0.184,0.023,0.37,0.071,0.557c0.047,0.188,0.123,0.356,0.225,0.507c0.103,0.15,0.239,0.273,0.41,0.368
		c0.169,0.096,0.378,0.144,0.624,0.144c0.34,0,0.619-0.048,0.833-0.144c0.215-0.095,0.405-0.287,0.568-0.573h0.021
		c0.02,0.096,0.042,0.192,0.066,0.291c0.024,0.101,0.059,0.193,0.108,0.282h1.35c-0.069-0.164-0.115-0.316-0.138-0.461
		c-0.025-0.143-0.036-0.344-0.036-0.603v-2.896c0-0.246-0.026-0.473-0.077-0.681c-0.051-0.207-0.148-0.386-0.291-0.537
		c-0.143-0.15-0.347-0.266-0.609-0.347c-0.263-0.082-0.602-0.123-1.018-0.123c-0.266,0-0.516,0.027-0.752,0.087
		c-0.235,0.058-0.44,0.152-0.614,0.286c-0.173,0.133-0.313,0.309-0.414,0.526c-0.102,0.219-0.153,0.484-0.153,0.798v0.134H136.932z
		 M129.948,86.376h2.322c0.491,0,0.897-0.075,1.218-0.225c0.32-0.151,0.576-0.379,0.767-0.687c0.19-0.307,0.325-0.694,0.404-1.166
		c0.078-0.47,0.118-1.029,0.118-1.678c0-0.539-0.031-1.026-0.092-1.463c-0.062-0.436-0.179-0.81-0.353-1.12
		c-0.174-0.31-0.419-0.549-0.732-0.716c-0.314-0.167-0.726-0.25-1.238-0.25h-2.414V86.376z M131.421,80.156h0.624
		c0.28,0,0.503,0.053,0.67,0.159c0.167,0.104,0.293,0.263,0.379,0.475c0.085,0.212,0.141,0.474,0.169,0.783
		c0.026,0.31,0.041,0.673,0.041,1.089c0,0.498-0.016,0.914-0.046,1.248c-0.031,0.335-0.092,0.604-0.185,0.809
		c-0.092,0.204-0.218,0.351-0.378,0.439c-0.161,0.089-0.367,0.133-0.619,0.133h-0.655V80.156z M123.682,82.269
		c0.092-0.304,0.292-0.455,0.599-0.455c0.313,0,0.516,0.151,0.608,0.455c0.093,0.304,0.139,0.755,0.139,1.355
		s-0.046,1.052-0.139,1.355c-0.092,0.304-0.295,0.456-0.608,0.456c-0.307,0-0.507-0.152-0.599-0.456
		c-0.092-0.304-0.138-0.755-0.138-1.355S123.59,82.572,123.682,82.269 M125.089,86.376h1.35v-7.304h-1.411v2.312h-0.021
		c-0.15-0.218-0.319-0.382-0.506-0.49c-0.189-0.11-0.415-0.164-0.681-0.164c-0.58,0-1.006,0.227-1.278,0.68
		c-0.274,0.453-0.41,1.192-0.41,2.215c0,1.023,0.136,1.762,0.41,2.215c0.272,0.453,0.698,0.681,1.278,0.681
		c0.287,0,0.527-0.057,0.722-0.169c0.194-0.112,0.369-0.299,0.526-0.558h0.021V86.376z M117.085,86.376h1.412v-3.651
		c0-0.607,0.248-0.911,0.746-0.911c0.211,0,0.365,0.056,0.461,0.169c0.095,0.112,0.143,0.312,0.143,0.598v3.796h1.412v-4.082
		c0-0.552-0.122-0.951-0.363-1.196c-0.243-0.245-0.589-0.368-1.039-0.368c-0.307,0-0.58,0.063-0.818,0.188
		c-0.24,0.126-0.434,0.325-0.583,0.6h-0.021v-0.646h-1.35V86.376z M114.705,84.708c0,0.157-0.027,0.289-0.081,0.395
		c-0.055,0.105-0.125,0.191-0.21,0.261s-0.179,0.118-0.281,0.147c-0.103,0.031-0.202,0.047-0.297,0.047
		c-0.191,0-0.327-0.074-0.409-0.226c-0.082-0.149-0.123-0.33-0.123-0.542c0-0.245,0.061-0.439,0.184-0.583
		c0.123-0.143,0.327-0.245,0.614-0.307c0.089-0.021,0.187-0.053,0.297-0.098c0.109-0.044,0.211-0.104,0.306-0.179V84.708z
		 M113.396,82.561v-0.153c0-0.218,0.054-0.392,0.164-0.522c0.109-0.13,0.273-0.194,0.491-0.194c0.238,0,0.407,0.06,0.506,0.179
		c0.099,0.12,0.148,0.285,0.148,0.497c0,0.184-0.04,0.324-0.122,0.419s-0.228,0.171-0.44,0.225l-0.798,0.216
		c-0.246,0.067-0.455,0.146-0.629,0.234c-0.174,0.089-0.317,0.2-0.43,0.333c-0.113,0.133-0.196,0.293-0.251,0.481
		c-0.054,0.187-0.081,0.411-0.081,0.67c0,0.184,0.023,0.37,0.071,0.557c0.048,0.188,0.123,0.356,0.225,0.507
		c0.103,0.15,0.239,0.273,0.409,0.368c0.171,0.096,0.379,0.144,0.624,0.144c0.341,0,0.619-0.048,0.834-0.144
		c0.215-0.095,0.404-0.287,0.568-0.573h0.02c0.021,0.096,0.043,0.192,0.067,0.291c0.023,0.101,0.059,0.193,0.107,0.282h1.351
		c-0.069-0.164-0.115-0.316-0.138-0.461c-0.024-0.143-0.036-0.344-0.036-0.603v-2.896c0-0.246-0.026-0.473-0.077-0.681
		c-0.051-0.207-0.148-0.386-0.291-0.537c-0.144-0.15-0.346-0.266-0.609-0.347c-0.263-0.082-0.602-0.123-1.018-0.123
		c-0.266,0-0.517,0.027-0.752,0.087c-0.235,0.058-0.44,0.152-0.614,0.286c-0.174,0.133-0.312,0.309-0.414,0.526
		c-0.102,0.219-0.154,0.484-0.154,0.798v0.134H113.396z"/>
	<path clip-path="url(#SVGID_10_)" fill="#00549F" d="M174.595,72.976v0.195c0,0.266,0.031,0.506,0.092,0.721
		c0.062,0.215,0.169,0.399,0.323,0.552c0.153,0.154,0.359,0.271,0.618,0.354c0.259,0.082,0.59,0.123,0.993,0.123
		c0.292,0,0.565-0.036,0.818-0.107c0.252-0.071,0.469-0.179,0.65-0.322c0.18-0.144,0.322-0.324,0.424-0.542
		c0.103-0.219,0.154-0.471,0.154-0.758c0-0.416-0.092-0.744-0.276-0.986c-0.185-0.243-0.499-0.438-0.942-0.588l-0.849-0.287
		c-0.239-0.074-0.401-0.166-0.486-0.276c-0.086-0.109-0.128-0.231-0.128-0.368c0-0.198,0.067-0.346,0.2-0.444
		c0.133-0.1,0.287-0.149,0.465-0.149c0.232,0,0.394,0.067,0.486,0.2c0.092,0.133,0.138,0.343,0.138,0.629h1.269v-0.226
		c0-0.497-0.153-0.883-0.46-1.155c-0.307-0.273-0.782-0.409-1.422-0.409c-0.362,0-0.67,0.044-0.926,0.133
		c-0.256,0.089-0.466,0.207-0.629,0.358c-0.164,0.149-0.284,0.325-0.358,0.526c-0.076,0.201-0.113,0.414-0.113,0.64
		c0,0.389,0.098,0.708,0.297,0.957c0.197,0.248,0.491,0.441,0.88,0.578l0.992,0.357c0.136,0.054,0.256,0.128,0.358,0.22
		c0.102,0.093,0.153,0.228,0.153,0.404c0,0.218-0.065,0.381-0.194,0.491c-0.13,0.108-0.304,0.163-0.522,0.163
		c-0.239,0-0.421-0.073-0.547-0.22c-0.127-0.146-0.189-0.34-0.189-0.578v-0.185H174.595z M169.925,72.976v0.195
		c0,0.266,0.031,0.506,0.092,0.721c0.062,0.215,0.169,0.399,0.323,0.552c0.153,0.154,0.36,0.271,0.618,0.354
		c0.259,0.082,0.591,0.123,0.993,0.123c0.293,0,0.565-0.036,0.818-0.107s0.469-0.179,0.65-0.322
		c0.181-0.144,0.322-0.324,0.424-0.542c0.103-0.219,0.154-0.471,0.154-0.758c0-0.416-0.092-0.744-0.276-0.986
		c-0.185-0.243-0.499-0.438-0.942-0.588l-0.849-0.287c-0.238-0.074-0.401-0.166-0.486-0.276c-0.085-0.109-0.128-0.231-0.128-0.368
		c0-0.198,0.067-0.346,0.2-0.444c0.133-0.1,0.288-0.149,0.465-0.149c0.233,0,0.394,0.067,0.486,0.2
		c0.092,0.133,0.138,0.343,0.138,0.629h1.269v-0.226c0-0.497-0.153-0.883-0.46-1.155c-0.307-0.273-0.781-0.409-1.422-0.409
		c-0.361,0-0.67,0.044-0.926,0.133c-0.256,0.089-0.466,0.207-0.629,0.358c-0.164,0.149-0.284,0.325-0.358,0.526
		c-0.075,0.201-0.113,0.414-0.113,0.64c0,0.389,0.099,0.708,0.297,0.957c0.197,0.248,0.491,0.441,0.88,0.578l0.992,0.357
		c0.136,0.054,0.256,0.128,0.358,0.22c0.102,0.093,0.153,0.228,0.153,0.404c0,0.218-0.064,0.381-0.194,0.491
		c-0.13,0.108-0.304,0.163-0.522,0.163c-0.238,0-0.421-0.073-0.547-0.22s-0.189-0.34-0.189-0.578v-0.185H169.925z M166.541,71.4
		v-0.215c0-0.13,0.012-0.259,0.036-0.389c0.023-0.13,0.063-0.247,0.118-0.354c0.054-0.104,0.127-0.19,0.22-0.255
		c0.092-0.064,0.209-0.098,0.352-0.098c0.144,0,0.261,0.029,0.353,0.087c0.092,0.059,0.164,0.145,0.215,0.256
		c0.051,0.113,0.087,0.249,0.108,0.409c0.02,0.161,0.033,0.346,0.041,0.558H166.541z M169.334,72.24v-0.317
		c0-0.423-0.028-0.807-0.082-1.151c-0.054-0.345-0.156-0.638-0.307-0.88c-0.15-0.242-0.356-0.43-0.619-0.563
		c-0.263-0.133-0.598-0.199-1.007-0.199c-0.478,0-0.86,0.079-1.146,0.235c-0.287,0.156-0.507,0.367-0.66,0.634
		c-0.153,0.266-0.256,0.569-0.307,0.911c-0.051,0.341-0.077,0.694-0.077,1.063c0,0.34,0.016,0.688,0.046,1.038
		c0.031,0.352,0.115,0.668,0.251,0.952c0.136,0.283,0.348,0.513,0.634,0.689c0.287,0.178,0.686,0.267,1.197,0.267
		c0.675,0,1.17-0.172,1.484-0.518c0.314-0.344,0.483-0.836,0.511-1.478h-1.268c-0.041,0.348-0.116,0.607-0.226,0.778
		c-0.109,0.171-0.283,0.255-0.521,0.255c-0.13,0-0.239-0.035-0.328-0.107s-0.16-0.167-0.214-0.286
		c-0.055-0.12-0.095-0.256-0.118-0.409c-0.024-0.153-0.036-0.313-0.036-0.476V72.24H169.334z M164.509,71.258
		c0-0.655-0.165-1.174-0.496-1.555c-0.33-0.382-0.823-0.573-1.478-0.573c-0.327,0-0.627,0.044-0.9,0.133s-0.509,0.243-0.706,0.465
		c-0.198,0.223-0.351,0.52-0.46,0.891c-0.11,0.372-0.164,0.841-0.164,1.406c0,0.553,0.044,1.016,0.133,1.387
		c0.089,0.371,0.22,0.668,0.394,0.89s0.392,0.381,0.654,0.476c0.263,0.096,0.571,0.144,0.926,0.144c0.75,0,1.287-0.194,1.611-0.583
		c0.325-0.389,0.486-0.944,0.486-1.668h-1.35c0,0.451-0.054,0.778-0.164,0.982c-0.109,0.204-0.283,0.307-0.521,0.307
		c-0.157,0-0.285-0.035-0.384-0.107c-0.099-0.072-0.176-0.186-0.23-0.343c-0.054-0.156-0.092-0.356-0.113-0.598
		c-0.02-0.243-0.03-0.534-0.03-0.875c0-0.314,0.01-0.591,0.03-0.828c0.021-0.239,0.059-0.436,0.113-0.589
		c0.054-0.153,0.135-0.27,0.24-0.349c0.106-0.078,0.248-0.117,0.425-0.117c0.13,0,0.237,0.033,0.322,0.098
		c0.085,0.063,0.15,0.149,0.194,0.256c0.044,0.104,0.075,0.225,0.092,0.358c0.018,0.133,0.026,0.264,0.026,0.394H164.509z
		 M156.758,71.247c0.013-0.238,0.046-0.443,0.097-0.613c0.051-0.171,0.126-0.304,0.225-0.399c0.1-0.095,0.238-0.144,0.415-0.144
		c0.286,0,0.484,0.151,0.593,0.451c0.109,0.299,0.164,0.794,0.164,1.482s-0.055,1.185-0.164,1.483c-0.109,0.3-0.307,0.45-0.593,0.45
		c-0.177,0-0.315-0.048-0.415-0.144c-0.099-0.095-0.174-0.228-0.225-0.398c-0.051-0.171-0.084-0.375-0.097-0.614
		c-0.013-0.238-0.02-0.498-0.02-0.777C156.738,71.746,156.745,71.485,156.758,71.247 M155.428,73.293
		c0.069,0.362,0.184,0.665,0.348,0.911c0.164,0.245,0.386,0.428,0.665,0.547c0.279,0.12,0.631,0.176,1.054,0.169
		c0.402,0,0.741-0.063,1.018-0.189c0.276-0.126,0.499-0.31,0.67-0.553c0.17-0.242,0.293-0.544,0.368-0.905
		c0.075-0.36,0.112-0.776,0.112-1.248c0-0.478-0.033-0.897-0.102-1.263c-0.068-0.366-0.184-0.671-0.348-0.916
		c-0.163-0.246-0.385-0.428-0.665-0.547c-0.279-0.12-0.631-0.176-1.053-0.169c-0.402,0-0.742,0.063-1.018,0.188
		s-0.499,0.311-0.67,0.554c-0.171,0.242-0.294,0.544-0.369,0.904c-0.074,0.361-0.112,0.777-0.112,1.248
		C155.326,72.509,155.36,72.932,155.428,73.293 M151.965,74.776h1.412v-3.304c0-0.185,0.031-0.34,0.092-0.466
		c0.062-0.126,0.143-0.229,0.246-0.307c0.102-0.079,0.215-0.136,0.337-0.169c0.123-0.033,0.246-0.052,0.369-0.052
		c0.074,0,0.148,0.002,0.22,0.005c0.071,0.004,0.145,0.009,0.219,0.017v-1.352c-0.04-0.007-0.083-0.012-0.127-0.015
		c-0.044-0.003-0.087-0.005-0.128-0.005c-0.294,0-0.542,0.08-0.747,0.24c-0.205,0.161-0.379,0.374-0.522,0.64h-0.02v-0.737h-1.351
		V74.776z M146.633,74.776h1.474V71.86h0.787c0.348,0,0.665-0.044,0.952-0.133c0.286-0.089,0.531-0.222,0.731-0.398
		c0.202-0.178,0.358-0.404,0.471-0.681c0.112-0.275,0.169-0.605,0.169-0.986c0-0.273-0.034-0.54-0.103-0.804
		c-0.067-0.263-0.18-0.495-0.337-0.7c-0.157-0.205-0.364-0.37-0.619-0.496c-0.256-0.126-0.571-0.189-0.947-0.189h-2.578V74.776z
		 M148.107,68.557h0.613c0.369,0,0.632,0.095,0.788,0.286c0.158,0.192,0.235,0.471,0.235,0.839c0,0.376-0.09,0.652-0.271,0.829
		c-0.18,0.177-0.417,0.266-0.711,0.266h-0.654V68.557z M141.416,74.776h1.412v-4.542h0.818v-0.962h-0.818v-0.48
		c0-0.156,0.041-0.27,0.123-0.337c0.081-0.069,0.222-0.104,0.419-0.104h0.133c0.061,0,0.11,0.003,0.143,0.012v-1.004
		c-0.259-0.02-0.511-0.03-0.757-0.03c-0.225,0-0.429,0.022-0.614,0.066c-0.184,0.044-0.338,0.117-0.465,0.221
		c-0.126,0.102-0.223,0.237-0.292,0.408c-0.067,0.172-0.102,0.378-0.102,0.624v0.624H140.7v0.962h0.716V74.776z M137.359,71.247
		c0.014-0.238,0.046-0.443,0.097-0.613c0.051-0.171,0.127-0.304,0.225-0.399c0.099-0.095,0.237-0.144,0.414-0.144
		c0.287,0,0.485,0.151,0.594,0.451c0.109,0.299,0.164,0.794,0.164,1.482s-0.055,1.185-0.164,1.483c-0.109,0.3-0.307,0.45-0.594,0.45
		c-0.177,0-0.315-0.048-0.414-0.144c-0.098-0.095-0.174-0.228-0.225-0.398c-0.051-0.171-0.083-0.375-0.097-0.614
		c-0.013-0.238-0.021-0.498-0.021-0.777C137.338,71.746,137.346,71.485,137.359,71.247 M136.029,73.293
		c0.069,0.362,0.184,0.665,0.348,0.911c0.164,0.245,0.386,0.428,0.665,0.547c0.28,0.12,0.631,0.176,1.053,0.169
		c0.404,0,0.742-0.063,1.018-0.189c0.277-0.126,0.501-0.31,0.67-0.553c0.171-0.242,0.294-0.544,0.369-0.905
		c0.075-0.36,0.112-0.776,0.112-1.248c0-0.478-0.034-0.897-0.102-1.263c-0.068-0.366-0.184-0.671-0.348-0.916
		c-0.164-0.246-0.385-0.428-0.665-0.547c-0.279-0.12-0.63-0.176-1.054-0.169c-0.402,0-0.741,0.063-1.017,0.188
		c-0.277,0.126-0.5,0.311-0.67,0.554c-0.17,0.242-0.293,0.544-0.369,0.904c-0.074,0.361-0.112,0.777-0.112,1.248
		C135.927,72.509,135.961,72.932,136.029,73.293 M130.25,74.776h1.412v-3.304c0-0.185,0.031-0.34,0.092-0.466
		s0.143-0.229,0.245-0.307c0.103-0.079,0.215-0.136,0.338-0.169s0.246-0.052,0.368-0.052c0.075,0,0.149,0.002,0.22,0.005
		c0.072,0.004,0.144,0.009,0.22,0.017v-1.352c-0.041-0.007-0.084-0.012-0.128-0.015c-0.045-0.003-0.087-0.005-0.128-0.005
		c-0.293,0-0.542,0.08-0.746,0.24c-0.205,0.161-0.379,0.374-0.522,0.64H131.6v-0.737h-1.35V74.776z M127.81,74.776h1.412v-5.504
		h-1.412V74.776z M127.81,68.598h1.412v-1.207h-1.412V68.598z M125.397,73.108c0,0.157-0.028,0.289-0.082,0.395
		c-0.055,0.105-0.125,0.191-0.21,0.261c-0.086,0.069-0.179,0.118-0.281,0.148s-0.201,0.046-0.297,0.046
		c-0.191,0-0.327-0.074-0.409-0.226c-0.082-0.149-0.123-0.33-0.123-0.542c0-0.244,0.062-0.439,0.185-0.583
		c0.122-0.143,0.327-0.244,0.613-0.307c0.088-0.02,0.188-0.053,0.297-0.097c0.108-0.044,0.211-0.104,0.307-0.18V73.108z
		 M124.087,70.961v-0.153c0-0.218,0.055-0.392,0.164-0.521s0.272-0.195,0.491-0.195c0.239,0,0.407,0.06,0.507,0.179
		c0.098,0.12,0.148,0.285,0.148,0.497c0,0.185-0.041,0.324-0.123,0.419c-0.082,0.096-0.229,0.171-0.44,0.226l-0.798,0.215
		c-0.245,0.068-0.455,0.146-0.629,0.234c-0.174,0.09-0.317,0.2-0.429,0.333c-0.113,0.134-0.197,0.293-0.251,0.481
		c-0.055,0.187-0.082,0.411-0.082,0.67c0,0.184,0.024,0.37,0.072,0.557c0.047,0.188,0.122,0.356,0.225,0.508
		c0.102,0.149,0.238,0.272,0.409,0.367c0.17,0.096,0.378,0.144,0.624,0.144c0.341,0,0.619-0.048,0.834-0.144
		c0.215-0.095,0.404-0.286,0.567-0.572h0.021c0.02,0.095,0.042,0.191,0.066,0.291c0.024,0.1,0.06,0.192,0.108,0.281h1.35
		c-0.068-0.163-0.114-0.316-0.138-0.461c-0.024-0.143-0.036-0.344-0.036-0.603v-2.896c0-0.245-0.025-0.473-0.076-0.681
		c-0.052-0.207-0.149-0.386-0.292-0.537c-0.143-0.149-0.347-0.266-0.609-0.347c-0.263-0.082-0.602-0.123-1.018-0.123
		c-0.266,0-0.516,0.028-0.751,0.087c-0.236,0.058-0.44,0.153-0.614,0.286c-0.174,0.133-0.312,0.309-0.415,0.527
		c-0.102,0.218-0.153,0.483-0.153,0.798v0.133H124.087z M117.675,74.776h1.412v-3.651c0-0.607,0.249-0.911,0.747-0.911
		c0.211,0,0.364,0.056,0.46,0.169c0.095,0.113,0.143,0.312,0.143,0.598v3.796h1.412v-4.082c0-0.552-0.122-0.95-0.363-1.196
		c-0.242-0.245-0.588-0.368-1.038-0.368c-0.621,0-1.068,0.235-1.34,0.706h-0.021v-2.363h-1.412V74.776z M116.772,69.938
		c0-0.266-0.018-0.55-0.056-0.854c-0.038-0.304-0.131-0.586-0.282-0.85c-0.15-0.263-0.376-0.479-0.68-0.649
		c-0.304-0.171-0.718-0.256-1.243-0.256c-0.552,0-0.992,0.094-1.32,0.281c-0.327,0.188-0.578,0.448-0.751,0.782
		c-0.174,0.335-0.287,0.735-0.338,1.202c-0.051,0.468-0.077,0.978-0.077,1.53c0,0.552,0.026,1.062,0.077,1.528
		c0.051,0.469,0.164,0.868,0.338,1.202c0.173,0.335,0.424,0.596,0.751,0.783c0.328,0.188,0.768,0.281,1.32,0.281
		c0.484,0,0.878-0.079,1.182-0.235c0.304-0.157,0.539-0.371,0.706-0.64c0.166-0.27,0.281-0.581,0.342-0.937
		c0.062-0.354,0.092-0.729,0.092-1.125h-1.473c0,0.396-0.023,0.715-0.071,0.957s-0.113,0.43-0.195,0.563s-0.179,0.222-0.291,0.266
		c-0.113,0.044-0.234,0.067-0.363,0.067c-0.157,0-0.295-0.033-0.415-0.098c-0.119-0.064-0.218-0.191-0.296-0.379
		c-0.079-0.187-0.137-0.451-0.174-0.793c-0.038-0.341-0.057-0.788-0.057-1.34c0-0.519,0.014-0.957,0.041-1.314
		c0.028-0.358,0.075-0.647,0.144-0.869c0.068-0.222,0.161-0.382,0.281-0.481c0.12-0.099,0.271-0.147,0.455-0.147
		c0.335,0,0.565,0.12,0.691,0.362c0.125,0.242,0.189,0.63,0.189,1.161H116.772z"/>
	<path clip-path="url(#SVGID_10_)" fill="#0099A1" d="M80.108,56.035v-0.728h-1.534v0.728c-1.029,0.291-1.826,1.137-2.028,2.198
		H69.87v1.535h6.813c0.408,1.076,1.442,1.847,2.658,1.847c1.216,0,2.25-0.771,2.658-1.847h6.655v-1.535h-6.519
		C81.933,57.172,81.137,56.326,80.108,56.035 M79.341,60.081c-0.725,0-1.315-0.589-1.315-1.315c0-0.671,0.514-1.206,1.167-1.282
		h0.296c0.651,0.076,1.166,0.611,1.166,1.282C80.655,59.492,80.065,60.081,79.341,60.081"/>
	<path clip-path="url(#SVGID_10_)" fill="#F5A800" d="M62.639,42.765c0-1.602-1.298-2.9-2.899-2.9s-2.899,1.298-2.899,2.9
		c0,1.6,1.298,2.899,2.899,2.899S62.639,44.365,62.639,42.765"/>
	<path clip-path="url(#SVGID_10_)" fill="#F5A800" d="M56.841,50.396c0-1.601-1.299-2.899-2.901-2.899
		c-1.6,0-2.899,1.298-2.899,2.899s1.299,2.899,2.899,2.899C55.542,53.294,56.841,51.997,56.841,50.396"/>
	<path clip-path="url(#SVGID_10_)" fill="#F5A800" d="M54.665,37.804c0-1.602-1.298-2.9-2.899-2.9s-2.899,1.298-2.899,2.9
		c0,1.601,1.298,2.9,2.899,2.9S54.665,39.405,54.665,37.804"/>
	<path clip-path="url(#SVGID_10_)" fill="#F5A800" d="M33.642,59.478c0-1.602-1.299-2.9-2.899-2.9c-1.602,0-2.9,1.299-2.9,2.9
		c0,1.601,1.298,2.899,2.9,2.899C32.343,62.377,33.642,61.078,33.642,59.478"/>
	<path clip-path="url(#SVGID_10_)" fill="#F5A800" d="M33.642,66.65c0-1.602-1.299-2.898-2.899-2.898c-1.602,0-2.9,1.297-2.9,2.898
		c0,1.6,1.298,2.899,2.9,2.899C32.343,69.55,33.642,68.25,33.642,66.65"/>
	<path clip-path="url(#SVGID_10_)" fill="#F5A800" d="M33.642,75.502c0-1.6-1.299-2.898-2.899-2.898c-1.602,0-2.9,1.299-2.9,2.898
		c0,1.602,1.298,2.899,2.9,2.899C32.343,78.401,33.642,77.104,33.642,75.502"/>
	<path clip-path="url(#SVGID_10_)" fill="#00B0B8" d="M98.889,64.627H82.939v4.349v17.402h21.75V64.627H98.889z M98.986,79.85
		c-0.234,0.517-0.58,0.96-1.04,1.335c-0.461,0.375-1.033,0.669-1.714,0.886c-0.681,0.214-1.469,0.32-2.365,0.32
		c-0.724,0-1.427-0.092-2.109-0.274c-0.681-0.185-1.28-0.469-1.796-0.848c-0.516-0.382-0.929-0.865-1.242-1.455
		c-0.313-0.589-0.464-1.289-0.451-2.1h2.798c0,0.442,0.081,0.817,0.24,1.123c0.16,0.307,0.372,0.556,0.636,0.745
		c0.264,0.191,0.571,0.331,0.92,0.424c0.35,0.094,0.722,0.14,1.114,0.14c0.258,0,0.535-0.022,0.829-0.066
		c0.295-0.042,0.571-0.127,0.829-0.247c0.257-0.122,0.471-0.292,0.644-0.508c0.171-0.214,0.258-0.487,0.258-0.819
		c0-0.355-0.114-0.643-0.341-0.865c-0.228-0.22-0.526-0.408-0.893-0.561c-0.367-0.155-0.784-0.283-1.253-0.386
		c-0.465-0.106-0.938-0.225-1.416-0.36c-0.492-0.122-0.971-0.273-1.437-0.451c-0.468-0.178-0.884-0.407-1.252-0.692
		c-0.369-0.28-0.666-0.631-0.893-1.048c-0.229-0.418-0.341-0.933-0.341-1.547c0-0.675,0.144-1.26,0.433-1.76
		c0.288-0.496,0.666-0.909,1.132-1.242c0.467-0.331,0.996-0.577,1.584-0.736c0.589-0.159,1.178-0.24,1.766-0.24
		c0.688,0,1.349,0.079,1.981,0.232c0.632,0.151,1.194,0.402,1.684,0.744c0.492,0.344,0.882,0.782,1.17,1.318
		c0.289,0.533,0.433,1.181,0.433,1.941h-2.799c-0.025-0.394-0.107-0.717-0.249-0.975c-0.141-0.258-0.329-0.462-0.56-0.61
		c-0.234-0.145-0.505-0.25-0.811-0.312c-0.307-0.062-0.633-0.091-0.976-0.091c-0.234,0-0.468,0.022-0.7,0.073
		c-0.233,0.049-0.445,0.135-0.635,0.258c-0.192,0.122-0.347,0.277-0.47,0.47c-0.123,0.188-0.184,0.419-0.184,0.688
		c0,0.259,0.049,0.469,0.147,0.628c0.097,0.157,0.292,0.304,0.58,0.432c0.289,0.13,0.688,0.264,1.197,0.405
		c0.51,0.143,1.176,0.316,1.998,0.525c0.159,0.036,0.368,0.088,0.626,0.156c0.258,0.068,0.531,0.16,0.82,0.276
		c0.287,0.117,0.578,0.268,0.865,0.45c0.288,0.185,0.552,0.412,0.791,0.681c0.24,0.271,0.434,0.592,0.582,0.969
		c0.146,0.374,0.219,0.807,0.219,1.296C99.335,78.777,99.22,79.334,98.986,79.85"/>
</g>
<rect x="87.022" y="52.388" fill="#FFFFFF" width="1.956" height="1.897"/>
<g>
	<defs>
		<rect id="SVGID_11_" x="10.445" y="16.78" width="389.914" height="92.795"/>
	</defs>
	<clipPath id="SVGID_12_">
		<use xlink:href="#SVGID_11_"  overflow="visible"/>
	</clipPath>
	<path clip-path="url(#SVGID_12_)" fill="#F5A800" d="M101.789,52.914c0-1.602-1.3-2.899-2.901-2.899
		c-1.6,0-2.899,1.297-2.899,2.899c0,1.6,1.299,2.901,2.899,2.901C100.489,55.815,101.789,54.514,101.789,52.914"/>
	<path clip-path="url(#SVGID_12_)" fill="#F5A800" d="M101.789,42.154c0-1.602-1.3-2.9-2.901-2.9c-1.6,0-2.899,1.298-2.899,2.9
		c0,1.601,1.299,2.9,2.899,2.9C100.489,45.054,101.789,43.755,101.789,42.154"/>
	<path clip-path="url(#SVGID_12_)" fill="#00B0B8" d="M99.655,58.612v-2.914c-0.246,0.069-0.499,0.117-0.767,0.117
		s-0.522-0.048-0.768-0.117v2.914h-2.24l3.008,6.014l3.006-6.014H99.655z"/>
	<path clip-path="url(#SVGID_12_)" fill="#00B0B8" d="M98.888,50.015c0.268,0,0.522,0.048,0.767,0.116v-5.191
		c-0.245,0.066-0.499,0.114-0.767,0.114s-0.522-0.048-0.767-0.115v5.192C98.366,50.063,98.62,50.015,98.888,50.015"/>
	<path clip-path="url(#SVGID_12_)" fill="#00B0B8" d="M89.834,48.527h-5.892c-0.109,0.16-0.201,0.333-0.323,0.48
		c-0.498,0.587-1.118,1.051-1.86,1.388c-0.742,0.338-1.618,0.508-2.624,0.508h-5.671v-2.376h-4.619c-0.196,0-0.358,0.16-0.358,0.358
		v6.064c0,0.198,0.162,0.359,0.358,0.359h20.989c0.197,0,0.359-0.161,0.359-0.359v-6.064C90.193,48.687,90.031,48.527,89.834,48.527
		 M88.978,54.285h-1.956v-1.897h1.956V54.285z"/>
	<path clip-path="url(#SVGID_12_)" fill="#0099A1" d="M76.355,47.408v1.064h2.579c0.416,0,0.82-0.067,1.214-0.203
		c0.393-0.135,0.744-0.359,1.049-0.672c0.054-0.055,0.095-0.129,0.145-0.189H76.355z"/>
</g>
<rect x="70.023" y="47.408" fill="#0099A1" width="3.442" height="1.12"/>
<g>
	<defs>
		<rect id="SVGID_13_" x="10.445" y="16.78" width="389.914" height="92.795"/>
	</defs>
	<clipPath id="SVGID_14_">
		<use xlink:href="#SVGID_13_"  overflow="visible"/>
	</clipPath>
	<path clip-path="url(#SVGID_14_)" fill="#00B0B8" d="M73.465,40.628h-4.619c-0.196,0-0.358,0.16-0.358,0.358v6.064
		c0,0.198,0.162,0.357,0.358,0.357h4.619V40.628z"/>
	<path clip-path="url(#SVGID_14_)" fill="#0099A1" d="M78.418,40.186h-2.063v0.443h4.103c-0.084-0.045-0.155-0.101-0.246-0.139
		C79.727,40.287,79.129,40.186,78.418,40.186"/>
</g>
<rect x="70.023" y="39.508" fill="#0099A1" width="3.442" height="1.12"/>
<g>
	<defs>
		<rect id="SVGID_15_" x="10.445" y="16.78" width="389.914" height="92.795"/>
	</defs>
	<clipPath id="SVGID_16_">
		<use xlink:href="#SVGID_15_"  overflow="visible"/>
	</clipPath>
	<path clip-path="url(#SVGID_16_)" fill="#00B0B8" d="M95.989,36.96h-5.797v-3.872c0-0.199-0.16-0.359-0.358-0.359H68.846
		c-0.197,0-0.359,0.16-0.359,0.359v6.063c0,0.198,0.162,0.357,0.359,0.357h4.618v-1.753h5.671c0.848,0,1.637,0.135,2.367,0.405
		s1.363,0.675,1.897,1.215c0.039,0.04,0.066,0.093,0.104,0.133h6.331c0.198,0,0.358-0.159,0.358-0.357v-0.656h5.797
		c0.751,0,1.409,0.392,1.789,0.981c0.343-0.143,0.716-0.222,1.11-0.222c0.175,0,0.345,0.021,0.511,0.051
		C98.866,37.937,97.544,36.96,95.989,36.96 M88.977,38.486h-1.956v-1.897h1.956V38.486z"/>
	<path clip-path="url(#SVGID_16_)" fill="#00B0B8" d="M53.258,47.586v-6.882c0-0.138-0.026-0.269-0.041-0.403
		c-0.429,0.25-0.92,0.403-1.452,0.403c-0.014,0-0.027-0.004-0.042-0.004v0.004v7.249c0,0.181,0.028,0.355,0.055,0.529
		C52.164,48.046,52.674,47.727,53.258,47.586"/>
	<path clip-path="url(#SVGID_16_)" fill="#00B0B8" d="M59.74,39.865c0.312,0,0.608,0.062,0.889,0.153
		c0.265-0.769,0.957-1.34,1.794-1.426v2.22l6.017-3.008l-6.017-3.007v2.262c-1.666,0.099-3.037,1.306-3.369,2.896
		C59.275,39.902,59.503,39.865,59.74,39.865"/>
	<path clip-path="url(#SVGID_16_)" fill="#00B0B8" d="M59.74,45.664c-0.268,0-0.522-0.048-0.767-0.116v2.404
		c0,1.177-0.957,2.133-2.132,2.133H56.81c0.01,0.104,0.031,0.204,0.031,0.31c0,0.44-0.107,0.853-0.28,1.226h0.28
		c2.022,0,3.666-1.646,3.666-3.669v-2.404C60.262,45.616,60.008,45.664,59.74,45.664"/>
	<path clip-path="url(#SVGID_16_)" fill="#00B0B8" d="M29.975,62.261v1.606c0.246-0.067,0.499-0.115,0.767-0.115
		s0.522,0.048,0.768,0.115v-1.606c-0.246,0.068-0.5,0.116-0.768,0.116S30.221,62.329,29.975,62.261"/>
	<path clip-path="url(#SVGID_16_)" fill="#00B0B8" d="M31.51,72.719v-3.285c-0.246,0.067-0.499,0.115-0.767,0.115
		s-0.522-0.048-0.768-0.115v3.285c0.246-0.067,0.5-0.116,0.768-0.116S31.264,72.651,31.51,72.719"/>
	<path clip-path="url(#SVGID_16_)" fill="#00B0B8" d="M33.426,80.514c-1.073-0.109-1.916-1.01-1.916-2.111v-0.117
		c-0.246,0.068-0.499,0.117-0.767,0.117s-0.522-0.049-0.768-0.117v0.117c0,1.948,1.531,3.532,3.451,3.646v2.262l6.016-3.007
		l-6.016-3.01V80.514z"/>
	<path clip-path="url(#SVGID_16_)" fill="#00B0B8" d="M74.24,74.663c0.268,0,0.522,0.048,0.767,0.115v-2.902
		c0-1.101,0.843-2.002,1.916-2.11v2.221l6.017-3.011l-6.017-3.006v2.261c-1.92,0.114-3.45,1.698-3.45,3.646v2.902
		C73.718,74.711,73.972,74.663,74.24,74.663"/>
	<path clip-path="url(#SVGID_16_)" fill="#00B0B8" d="M74.24,80.463c-0.388,0-0.755-0.078-1.093-0.217
		c-0.377,0.607-1.043,1.014-1.808,1.014H69.89c-1.176,0-2.134-0.956-2.134-2.135v-2.289c-0.245,0.068-0.499,0.115-0.767,0.115
		c-0.268,0-0.522-0.047-0.767-0.115v2.289c0,2.024,1.646,3.668,3.668,3.668h1.449c1.569,0,2.901-0.992,3.425-2.384
		C74.593,80.44,74.419,80.463,74.24,80.463"/>
	<path clip-path="url(#SVGID_16_)" fill="#F5A800" d="M69.89,74.052c0-1.601-1.299-2.899-2.901-2.899
		c-1.599,0-2.899,1.299-2.899,2.899s1.3,2.9,2.899,2.9C68.591,76.952,69.89,75.652,69.89,74.052"/>
	<path clip-path="url(#SVGID_16_)" fill="#F5A800" d="M77.139,77.563c0-1.601-1.299-2.899-2.899-2.899
		c-1.601,0-2.901,1.299-2.901,2.899s1.3,2.9,2.901,2.9C75.84,80.463,77.139,79.163,77.139,77.563"/>
	<path clip-path="url(#SVGID_16_)" fill="#00B0B8" d="M37.852,40.36c-0.234-0.141-0.503-0.236-0.81-0.285
		C36.734,40.025,36.416,40,36.083,40h-2.245v3.942h2.245c0.333,0,0.652-0.025,0.959-0.074c0.307-0.049,0.576-0.144,0.81-0.287
		c0.233-0.14,0.419-0.34,0.562-0.598c0.141-0.257,0.211-0.595,0.211-1.013c0-0.416-0.07-0.754-0.211-1.012
		C38.271,40.701,38.084,40.501,37.852,40.36"/>
	<path clip-path="url(#SVGID_16_)" fill="#00B0B8" d="M48.983,37.037h-2.292v-3.584H24.942v21.75h5.033v1.489
		c0.246-0.067,0.499-0.115,0.767-0.115s0.522,0.048,0.768,0.115v-1.489h15.181V38.571h2.292c-0.068-0.245-0.116-0.5-0.116-0.767
		S48.915,37.282,48.983,37.037 M41.175,43.537c-0.166,0.503-0.431,0.951-0.792,1.344c-0.362,0.393-0.832,0.708-1.408,0.949
		c-0.578,0.239-1.277,0.358-2.1,0.358h-3.038v4.715h-2.891V37.755h5.929c0.823,0,1.522,0.119,2.1,0.359
		c0.576,0.239,1.046,0.556,1.408,0.947c0.361,0.394,0.626,0.845,0.792,1.355c0.165,0.509,0.249,1.028,0.249,1.555
		C41.424,42.512,41.34,43.033,41.175,43.537"/>
	<path clip-path="url(#SVGID_16_)" fill="#FFFFFF" d="M30.946,37.755h5.929c0.823,0,1.522,0.119,2.1,0.359
		c0.576,0.239,1.046,0.555,1.408,0.947c0.361,0.394,0.626,0.845,0.792,1.355c0.165,0.509,0.249,1.027,0.249,1.555
		c0,0.54-0.084,1.062-0.249,1.565c-0.166,0.504-0.431,0.952-0.792,1.345c-0.362,0.393-0.832,0.708-1.408,0.948
		c-0.578,0.24-1.277,0.358-2.1,0.358h-3.038v4.716h-2.891V37.755z M33.837,43.942h2.245c0.333,0,0.652-0.026,0.959-0.074
		c0.307-0.049,0.576-0.144,0.81-0.286c0.233-0.14,0.42-0.341,0.562-0.599c0.141-0.257,0.212-0.595,0.212-1.012
		s-0.071-0.754-0.212-1.012c-0.142-0.258-0.329-0.457-0.562-0.599c-0.234-0.141-0.503-0.237-0.81-0.285
		C36.734,40.026,36.416,40,36.083,40h-2.245V43.942z"/>
	<path clip-path="url(#SVGID_16_)" fill="#00B0B8" d="M64.09,68.209h-2.899c-0.026,0-0.047,0.012-0.072,0.014v-3.596H39.441v21.751
		h21.678V69.729c0.025,0.002,0.046,0.016,0.072,0.016h2.899c0.973,0,1.786,0.658,2.042,1.553c0.272-0.085,0.556-0.146,0.857-0.146
		c0.244,0,0.478,0.039,0.703,0.097C67.393,69.525,65.897,68.209,64.09,68.209 M53.374,82.078l-0.994-2.929h-4.916l-1.032,2.929
		h-2.928l4.991-13.148h2.964l4.916,13.148H53.374z"/>
</g>
<polygon fill="#00B0B8" points="49.931,72.172 48.218,76.997 51.625,76.997 49.968,72.172 "/>
<path fill="#FFFFFF" d="M48.495,68.931h2.964l4.916,13.147h-3l-0.995-2.929h-4.916l-1.032,2.929h-2.928L48.495,68.931z
	 M48.218,76.997h3.408l-1.659-4.826H49.93L48.218,76.997z"/>
<g>
	<defs>
		<rect id="SVGID_17_" x="10.445" y="16.78" width="389.914" height="92.795"/>
	</defs>
	<clipPath id="SVGID_18_">
		<use xlink:href="#SVGID_17_"  overflow="visible"/>
	</clipPath>
	<path clip-path="url(#SVGID_18_)" fill="#FFFFFF" d="M91.067,77.714c0,0.442,0.08,0.817,0.239,1.123
		c0.161,0.306,0.373,0.556,0.636,0.745c0.264,0.192,0.572,0.33,0.921,0.423c0.35,0.095,0.722,0.142,1.114,0.142
		c0.258,0,0.534-0.024,0.828-0.066c0.295-0.043,0.572-0.128,0.83-0.249c0.258-0.121,0.471-0.291,0.644-0.507
		c0.171-0.215,0.258-0.487,0.258-0.82c0-0.354-0.115-0.642-0.341-0.864c-0.228-0.22-0.525-0.408-0.893-0.561
		c-0.368-0.155-0.785-0.283-1.253-0.386c-0.465-0.107-0.939-0.225-1.417-0.361c-0.491-0.122-0.971-0.272-1.436-0.45
		c-0.468-0.178-0.884-0.407-1.253-0.691c-0.368-0.281-0.665-0.632-0.893-1.049c-0.227-0.418-0.341-0.933-0.341-1.547
		c0-0.675,0.145-1.26,0.433-1.76c0.288-0.496,0.667-0.909,1.133-1.241c0.467-0.333,0.995-0.578,1.583-0.736
		c0.59-0.16,1.179-0.242,1.768-0.242c0.687,0,1.347,0.08,1.979,0.233c0.633,0.15,1.194,0.402,1.685,0.745
		c0.491,0.342,0.881,0.781,1.17,1.317c0.289,0.533,0.432,1.181,0.432,1.941h-2.799c-0.023-0.395-0.106-0.717-0.248-0.975
		s-0.329-0.462-0.561-0.61c-0.233-0.145-0.503-0.25-0.811-0.311c-0.307-0.063-0.632-0.092-0.975-0.092
		c-0.235,0-0.468,0.023-0.701,0.074c-0.232,0.048-0.444,0.134-0.635,0.257c-0.191,0.122-0.347,0.276-0.47,0.47
		c-0.123,0.188-0.183,0.419-0.183,0.69c0,0.257,0.048,0.467,0.146,0.627c0.098,0.155,0.292,0.303,0.581,0.431
		c0.289,0.13,0.687,0.264,1.196,0.404c0.511,0.144,1.177,0.317,1.999,0.526c0.159,0.036,0.368,0.088,0.626,0.155
		c0.258,0.069,0.53,0.161,0.82,0.277c0.287,0.117,0.577,0.268,0.864,0.449c0.289,0.186,0.553,0.413,0.792,0.682
		c0.239,0.271,0.434,0.592,0.581,0.969c0.147,0.374,0.22,0.807,0.22,1.296c0,0.604-0.116,1.161-0.35,1.677
		c-0.233,0.517-0.579,0.96-1.039,1.334c-0.462,0.376-1.033,0.67-1.714,0.887c-0.681,0.214-1.47,0.319-2.366,0.319
		c-0.724,0-1.426-0.092-2.107-0.273c-0.682-0.185-1.281-0.468-1.797-0.848c-0.515-0.382-0.929-0.865-1.243-1.454
		c-0.313-0.59-0.463-1.289-0.45-2.101H91.067z"/>
	<path clip-path="url(#SVGID_18_)" fill="#00B0B5" d="M89.834,40.629h-5.558c0.132,0.248,0.269,0.491,0.375,0.772
		c0.301,0.81,0.45,1.763,0.45,2.854c0,0.958-0.122,1.841-0.366,2.652c-0.056,0.179-0.139,0.332-0.207,0.501h5.306
		c0.197,0,0.359-0.16,0.359-0.357v-6.064C90.193,40.788,90.031,40.629,89.834,40.629 M88.978,46.386h-1.956v-1.897h1.956V46.386z"/>
	<path clip-path="url(#SVGID_18_)" fill="#0099A1" d="M84.529,47.408L84.529,47.408c-0.161,0.405-0.356,0.777-0.587,1.119v0.001
		h4.91v-1.12H84.529z"/>
	<path clip-path="url(#SVGID_18_)" fill="#0099A1" d="M83.503,39.508c0.3,0.324,0.552,0.703,0.773,1.118v0.001h0.001l4.575,0.001
		v-1.12H83.503z"/>
	<path clip-path="url(#SVGID_18_)" fill="#00B0B8" d="M82.018,42.735c-0.129-0.533-0.341-0.991-0.635-1.372
		c-0.24-0.309-0.559-0.544-0.923-0.734c0-0.001-0.001-0.001-0.001-0.001h-4.103v6.779h4.987c0.115-0.139,0.223-0.29,0.32-0.457
		c0.099-0.179,0.194-0.365,0.272-0.577c0.184-0.505,0.275-1.117,0.275-1.842C82.209,43.867,82.146,43.269,82.018,42.735"/>
	<path clip-path="url(#SVGID_18_)" fill="#FFFFFF" d="M84.276,40.627L84.276,40.627c-0.106-0.198-0.219-0.386-0.34-0.565
		c-0.133-0.191-0.272-0.376-0.426-0.543c-0.003-0.003-0.005-0.007-0.008-0.01c-0.037-0.041-0.064-0.094-0.103-0.133
		c-0.535-0.54-1.167-0.947-1.898-1.217c-0.73-0.269-1.519-0.404-2.366-0.404h-5.67v13.147h5.67c1.007,0,1.881-0.169,2.624-0.507
		c0.743-0.337,1.363-0.801,1.859-1.389c0.124-0.146,0.216-0.32,0.323-0.48c0.231-0.341,0.427-0.714,0.587-1.118
		c0.067-0.169,0.151-0.323,0.205-0.502c0.245-0.81,0.368-1.693,0.368-2.652c0-1.091-0.15-2.044-0.452-2.854
		C84.546,41.119,84.41,40.875,84.276,40.627 M81.935,46.373c-0.184,0.503-0.43,0.91-0.738,1.224
		c-0.305,0.314-0.655,0.537-1.048,0.672c-0.394,0.136-0.798,0.202-1.215,0.202h-2.578v-8.285h2.062c0.712,0,1.31,0.1,1.794,0.304
		c0.486,0.201,0.876,0.493,1.171,0.873c0.294,0.381,0.506,0.839,0.635,1.372c0.129,0.534,0.192,1.133,0.192,1.797
		C82.209,45.256,82.119,45.87,81.935,46.373"/>
</g>
<rect x="87.022" y="44.489" fill="#FFFFFF" width="1.956" height="1.897"/>
<rect x="87.022" y="36.589" fill="#FFFFFF" width="1.956" height="1.897"/>
</svg>
